<?xml version="1.0" encoding="UTF-8"?>
<svg xmlns="http://www.w3.org/2000/svg" style="stroke-dasharray:none; shape-rendering:auto; font-family:'Arial'; text-rendering:auto; fill-opacity:1; color-interpolation:auto; color-rendering:auto; font-size:12; fill:black; stroke:black; image-rendering:auto; stroke-miterlimit:10; stroke-linecap:square; stroke-linejoin:miter; font-style:normal; stroke-width:1; stroke-dashoffset:0; font-weight:normal; stroke-opacity:1;" contentScriptType="text/ecmascript" preserveAspectRatio="xMidYMid meet" zoomAndPan="magnify" version="1.0" contentStyleType="text/css" xml:xlink="http://www.w3.org/1999/xlink" width="631" height="587"><rect x="2" y="133" width="629" height="183" ry="0" rx="0" style="stroke:#000000; fill:#FFFFFF" /><g componentSequence="1"><text x="-224" y="10" transform="rotate(270)" text-anchor="middle" style="font-weight:bold;font-size:10px;stroke:none; fill:#434343"><tspan dy="14" x="-224">Gestão</tspan></text></g><rect x="2" y="470" width="304" height="117" ry="0" rx="0" style="stroke:#000000; fill:#A7FCC0" /><g componentSequence="3"><text x="-528" y="10" transform="rotate(270)" text-anchor="middle" style="font-weight:bold;font-size:10px;stroke:none; fill:#434343"><tspan dy="14" x="-528">Aprovar</tspan></text></g><rect x="305" y="470" width="326" height="117" ry="0" rx="0" style="stroke:#000000; fill:#82B0B7" /><g componentSequence="5"><text x="-528" y="313" transform="rotate(270)" text-anchor="middle" style="font-weight:bold;font-size:10px;stroke:none; fill:#434343"><tspan dy="14" x="-528">Reprovar</tspan></text></g><rect x="2" y="316" width="629" height="155" ry="0" rx="0" style="stroke:#000000; fill:#FFFFFF" /><g componentSequence="2"><text x="-393" y="10" transform="rotate(270)" text-anchor="middle" style="font-weight:bold;font-size:10px;stroke:none; fill:#434343"><tspan dy="14" x="-393">Gerencia financeira e ...</tspan></text></g><rect x="2" y="0" width="629" height="134" ry="0" rx="0" style="stroke:#000000; fill:#FFFFFF" /><g componentSequence="4"><text x="-67" y="10" transform="rotate(270)" text-anchor="middle" style="font-weight:bold;font-size:10px;stroke:none; fill:#434343"><tspan dy="14" x="-67">Solicitante</tspan></text></g><g sequence="2"><ellipse cx="407" cy="27" rx="17" ry="17" stroke-width="1" style="fill:url(#linearGradient66FF6696FF96B6FFB6_391350064);" stroke="336633" /></g><g sequence="8"><ellipse cx="117" cy="531" rx="17" ry="17" stroke-width="3" style="fill:url(#linearGradientFF6666FF9696FFB6B6_429161386);" stroke="993333" /></g><g sequence="116"><rect x="40" y="150" width="106" height="108" ry="5" rx="5" style="fill:url(#linearGradientF8FBFEEDF5FCDEEDFAD4E7F8E2E5E9_497806400);" stroke="191970" /></g><g componentSequence="116"><text x="93" y="165" text-anchor="middle" style="font-weight:bold;font-size:10px;stroke:none; fill:#333399"><tspan dy="14" x="93">Chefe</tspan><tspan dy="14" x="93">Imediato -</tspan><tspan dy="14" x="93">Aprovar</tspan><tspan dy="14" x="93">solicitação</tspan></text></g><g sequence="134"><ellipse cx="487" cy="529" rx="17" ry="17" stroke-width="3" style="fill:url(#linearGradientFF6666FF9696FFB6B6_1487499665);" stroke="993333" /></g><g sequence="134"><polygon points=" 478 525 483 520 488 525 493 520 498 525 493 530 498 535 493 540 488 535 483 540 478 535 483 530" style="stroke:none; fill:#993333" /></g><g sequence="145"><rect x="200" y="140" width="106" height="124" ry="5" rx="5" style="fill:url(#linearGradientF8FBFEEDF5FCDEEDFAD4E7F8E2E5E9_1397229491);" stroke="191970" /></g><g componentSequence="145"><text x="253" y="155" text-anchor="middle" style="font-weight:bold;font-size:10px;stroke:none; fill:#333399"><tspan dy="14" x="253">Gestor Centro</tspan><tspan dy="14" x="253">de Custos -</tspan><tspan dy="14" x="253">Aprovar</tspan><tspan dy="14" x="253">solicitação</tspan></text></g><g sequence="161"><rect x="170" y="360" width="106" height="76" ry="5" rx="5" style="fill:url(#linearGradientF8FBFEEDF5FCDEEDFAD4E7F8E2E5E9_1765502811);" stroke="191970" /></g><g componentSequence="161"><text x="223" y="375" text-anchor="middle" style="font-weight:bold;font-size:10px;stroke:none; fill:#333399"><tspan dy="14" x="223">GEF - Validar</tspan><tspan dy="14" x="223">solicitação</tspan></text></g><g sequence="168"><polygon points=" 70 50 100 20 130 50 100 80 70 50" style="fill:url(#linearGradientFAFBFCFFFFCC_724584400);" stroke="000000" /></g><g componentSequence="168"><text x="100" y="90" text-anchor="middle" style="font-weight:bold;font-size:10px;stroke:none; fill:#333399"><tspan dy="14" x="100">Exclusi</tspan><tspan dy="14" x="100">vo</tspan></text></g><g sequence="172"><rect x="210" y="20" width="106" height="76" ry="5" rx="5" style="fill:url(#linearGradientF8FBFEEDF5FCDEEDFAD4E7F8E2E5E9_948342494);" stroke="191970" /></g><g componentSequence="172"><text x="263" y="35" text-anchor="middle" style="font-weight:bold;font-size:10px;stroke:none; fill:#333399"><tspan dy="14" x="263">Processamen</tspan><tspan dy="14" x="263">to</tspan></text></g><g sequence="174"><rect x="350" y="160" width="106" height="92" ry="5" rx="5" style="fill:url(#linearGradientF8FBFEEDF5FCDEEDFAD4E7F8E2E5E9_736125922);" stroke="191970" /></g><g componentSequence="174"><text x="403" y="175" text-anchor="middle" style="font-weight:bold;font-size:10px;stroke:none; fill:#333399"><tspan dy="14" x="403">Autorizadores</tspan><tspan dy="14" x="403">- Aprovar</tspan><tspan dy="14" x="403">solicitação</tspan></text></g><g sequence="180"><rect x="490" y="20" width="106" height="92" ry="5" rx="5" style="fill:url(#linearGradientF8FBFEEDF5FCDEEDFAD4E7F8E2E5E9_420712562);" stroke="191970" /></g><g componentSequence="180"><text x="543" y="35" text-anchor="middle" style="font-weight:bold;font-size:10px;stroke:none; fill:#333399"><tspan dy="14" x="543">Solicitante -</tspan><tspan dy="14" x="543">Ajustar</tspan><tspan dy="14" x="543">solicitação</tspan></text></g><g componentSequence="146"><text x="183" y="203" style="font-size:10px;font-weight:none;stroke:none; fill:#333399" text-anchor="left" /></g><g componentSequence="163"><text x="172" y="475" style="font-size:10px;font-weight:none;stroke:none; fill:#333399" text-anchor="left" /></g><g componentSequence="164"><text x="383" y="472" style="font-size:10px;font-weight:none;stroke:none; fill:#333399" text-anchor="left" /></g><g componentSequence="166"><text x="363" y="39" style="font-size:10px;font-weight:none;stroke:none; fill:#333399" text-anchor="left" /></g><g componentSequence="169"><text x="197" y="119" style="font-size:10px;font-weight:none;stroke:none; fill:#333399" text-anchor="left" /></g><g componentSequence="170"><text x="175" y="128" style="font-size:10px;font-weight:none;stroke:none; fill:#333399" text-anchor="left" /></g><g componentSequence="171"><text x="107" y="139" style="font-size:10px;font-weight:none;stroke:none; fill:#333399" text-anchor="left" /></g><g componentSequence="173"><text x="177" y="22" style="font-size:10px;font-weight:none;stroke:none; fill:#333399" text-anchor="left" /></g><g componentSequence="175"><text x="338" y="204" style="font-size:10px;font-weight:none;stroke:none; fill:#333399" text-anchor="left" /></g><g componentSequence="176"><text x="319" y="306" style="font-size:10px;font-weight:none;stroke:none; fill:#333399" text-anchor="left" /></g><g componentSequence="177"><text x="331" y="329" style="font-size:10px;font-weight:none;stroke:none; fill:#333399" text-anchor="left" /></g><g componentSequence="178"><text x="419" y="325" style="font-size:10px;font-weight:none;stroke:none; fill:#333399" text-anchor="left" /></g><g componentSequence="179"><text x="459" y="382" style="font-size:10px;font-weight:none;stroke:none; fill:#333399" text-anchor="left" /></g><g componentSequence="181"><text x="567" y="395" style="font-size:10px;font-weight:none;stroke:none; fill:#333399" text-anchor="left" /></g><g componentSequence="183"><text x="611" y="395" style="font-size:10px;font-weight:none;stroke:none; fill:#333399" text-anchor="left" /></g><g componentSequence="184"><text x="413" y="62" style="font-size:10px;font-weight:none;stroke:none; fill:#333399" text-anchor="left" /></g><path style="fill:none; stroke:#000000;stroke-width:1" d="M390.0 30.0 L316.0 46.0" /><polygon style="fill:#000000; stroke:#000000;" points=" 327 49 316 46 325 39 324 44" /><path style="fill:none; stroke:#000000;stroke-width:1" d="M192.0 436.0 L128.0 517.0" /><polygon style="fill:#000000; stroke:#000000;" points=" 138 512 128 517 130 506 133 511" /><path style="fill:none; stroke:#000000;stroke-width:1" d="M146.0 203.0 L199.0 202.0" /><polygon style="fill:#000000; stroke:#000000;" points=" 189 197 199 202 189 207 191 202" /><path style="fill:none; stroke:#000000;stroke-width:1" d="M92.0 258.0 L92.0 329.0 L433.0 329.0 L483.0 512.0" /><polygon style="fill:#000000; stroke:#000000;" points=" 485 501 483 512 476 504 481 504" /><path style="fill:none; stroke:#000000;stroke-width:1" d="M97.0 128.0 L96.0 149.0" /><polygon style="fill:#000000; stroke:#000000;" points=" 101 139 96 149 91 139 96 141" /><path style="fill:none; stroke:#000000;stroke-width:1" d="M276.0 424.0 L471.0 521.0" /><polygon style="fill:#000000; stroke:#000000;" points=" 464 512 471 521 460 521 464 517" /><path style="fill:none; stroke:#000000;stroke-width:1" d="M252.0 264.0 L252.0 325.0 L436.0 325.0 L483.0 512.0" /><polygon style="fill:#000000; stroke:#000000;" points=" 485 501 483 512 476 504 481 504" /><path style="fill:none; stroke:#000000;stroke-width:1" d="M415.0 252.0 L483.0 512.0" /><polygon style="fill:#000000; stroke:#000000;" points=" 485 501 483 512 476 504 481 504" /><path style="fill:none; stroke:#000000;stroke-width:1" d="M306.0 203.0 L349.0 204.0" /><polygon style="fill:#000000; stroke:#000000;" points=" 339 199 349 204 339 209 341 204" /><path style="fill:none; stroke:#000000;stroke-width:1" d="M130.0 99.0 L199.0 157.0" /><polygon style="fill:#000000; stroke:#000000;" points=" 195 147 199 157 188 154 193 152" /><path style="fill:none; stroke:#000000;stroke-width:1" d="M276.0 398.0 L557.0 398.0 L545.0 112.0" /><polygon style="fill:#000000; stroke:#000000;" points=" 540 122 545 112 550 122 545 120" /><path style="fill:none; stroke:#000000;stroke-width:1" d="M359.0 252.0 L259.0 359.0" /><polygon style="fill:#000000; stroke:#000000;" points=" 269 355 259 359 262 348 264 353" /><path style="fill:none; stroke:#000000;stroke-width:1" d="M596.0 71.0 L601.0 72.0 L601.0 398.0 L276.0 398.0" /><polygon style="fill:#000000; stroke:#000000;" points=" 286 403 276 398 286 393 284 398" /><path style="fill:none; stroke:#000000;stroke-width:1" d="M244.0 96.0 L244.0 96.0 L193.0 122.0 L130.0 89.0" /><polygon style="fill:#000000; stroke:#000000;" points=" 137 98 130 89 141 89 137 93" /><path style="fill:none; stroke:#009600;stroke-width:1" d="M209.0 34.0 L172.0 18.0 L130.0 50.0" /><polygon style="fill:#009600; stroke:#009600;" points=" 141 48 130 50 135 40 136 45" /><path style="fill:none; stroke:#000000;stroke-width:1" d="M489.0 64.0 L316.0 59.0" /><polygon style="fill:#000000; stroke:#000000;" points=" 326 64 316 59 326 54 324 59" /><defs><linearGradient xmlns:xlink="http://www.w3.org/1999/xlink" xlink:href="#linearGradient66FF6696FF96B6FFB6" id="linearGradient66FF6696FF96B6FFB6_391350064" x1="0" y1="10.0" x2="0" y2="45.0" gradientUnits="userSpaceOnUse" xlink:type="simple" xlink:actuate="onLoad" xlink:show="other" /><linearGradient id="linearGradient66FF6696FF96B6FFB6"><stop style="stop-color:#66FF66;stop-opacity:1;" offset="0.0" id="stop66FF66" /><stop style="stop-color:#96FF96;stop-opacity:1;" offset="0.5" id="stop96FF96" /><stop style="stop-color:#B6FFB6;stop-opacity:1;" offset="1.0" id="stopB6FFB6" /></linearGradient><linearGradient xmlns:xlink="http://www.w3.org/1999/xlink" xlink:href="#linearGradientFF6666FF9696FFB6B6" id="linearGradientFF6666FF9696FFB6B6_429161386" x1="0" y1="514.0" x2="0" y2="549.0" gradientUnits="userSpaceOnUse" xlink:type="simple" xlink:actuate="onLoad" xlink:show="other" /><linearGradient id="linearGradientFF6666FF9696FFB6B6"><stop style="stop-color:#FF6666;stop-opacity:1;" offset="0.0" id="stopFF6666" /><stop style="stop-color:#FF9696;stop-opacity:1;" offset="0.5" id="stopFF9696" /><stop style="stop-color:#FFB6B6;stop-opacity:1;" offset="1.0" id="stopFFB6B6" /></linearGradient><linearGradient xmlns:xlink="http://www.w3.org/1999/xlink" xlink:href="#linearGradientF8FBFEEDF5FCDEEDFAD4E7F8E2E5E9" id="linearGradientF8FBFEEDF5FCDEEDFAD4E7F8E2E5E9_497806400" x1="0" y1="150.0" x2="0" y2="256.0" gradientUnits="userSpaceOnUse" xlink:type="simple" xlink:actuate="onLoad" xlink:show="other" /><linearGradient id="linearGradientF8FBFEEDF5FCDEEDFAD4E7F8E2E5E9"><stop style="stop-color:#F8FBFE;stop-opacity:1;" offset="0.0" id="stopF8FBFE" /><stop style="stop-color:#EDF5FC;stop-opacity:1;" offset="0.25" id="stopEDF5FC" /><stop style="stop-color:#DEEDFA;stop-opacity:1;" offset="0.5" id="stopDEEDFA" /><stop style="stop-color:#D4E7F8;stop-opacity:1;" offset="0.75" id="stopD4E7F8" /><stop style="stop-color:#E2E5E9;stop-opacity:1;" offset="1.0" id="stopE2E5E9" /></linearGradient><linearGradient xmlns:xlink="http://www.w3.org/1999/xlink" xlink:href="#linearGradientFF6666FF9696FFB6B6" id="linearGradientFF6666FF9696FFB6B6_1487499665" x1="0" y1="512.0" x2="0" y2="547.0" gradientUnits="userSpaceOnUse" xlink:type="simple" xlink:actuate="onLoad" xlink:show="other" /><linearGradient xmlns:xlink="http://www.w3.org/1999/xlink" xlink:href="#linearGradientF8FBFEEDF5FCDEEDFAD4E7F8E2E5E9" id="linearGradientF8FBFEEDF5FCDEEDFAD4E7F8E2E5E9_1397229491" x1="0" y1="140.0" x2="0" y2="246.0" gradientUnits="userSpaceOnUse" xlink:type="simple" xlink:actuate="onLoad" xlink:show="other" /><linearGradient xmlns:xlink="http://www.w3.org/1999/xlink" xlink:href="#linearGradientF8FBFEEDF5FCDEEDFAD4E7F8E2E5E9" id="linearGradientF8FBFEEDF5FCDEEDFAD4E7F8E2E5E9_1765502811" x1="0" y1="360.0" x2="0" y2="466.0" gradientUnits="userSpaceOnUse" xlink:type="simple" xlink:actuate="onLoad" xlink:show="other" /><linearGradient xmlns:xlink="http://www.w3.org/1999/xlink" xlink:href="#linearGradientFAFBFCFFFFCC" id="linearGradientFAFBFCFFFFCC_724584400" x1="0" y1="20.0" x2="0" y2="80.0" gradientUnits="userSpaceOnUse" xlink:type="simple" xlink:actuate="onLoad" xlink:show="other" /><linearGradient id="linearGradientFAFBFCFFFFCC"><stop style="stop-color:#FAFBFC;stop-opacity:1;" offset="0.0" id="stopFAFBFC" /><stop style="stop-color:#FFFFCC;stop-opacity:1;" offset="1.0" id="stopFFFFCC" /></linearGradient><linearGradient xmlns:xlink="http://www.w3.org/1999/xlink" xlink:href="#linearGradientF8FBFEEDF5FCDEEDFAD4E7F8E2E5E9" id="linearGradientF8FBFEEDF5FCDEEDFAD4E7F8E2E5E9_948342494" x1="0" y1="20.0" x2="0" y2="126.0" gradientUnits="userSpaceOnUse" xlink:type="simple" xlink:actuate="onLoad" xlink:show="other" /><linearGradient xmlns:xlink="http://www.w3.org/1999/xlink" xlink:href="#linearGradientF8FBFEEDF5FCDEEDFAD4E7F8E2E5E9" id="linearGradientF8FBFEEDF5FCDEEDFAD4E7F8E2E5E9_736125922" x1="0" y1="160.0" x2="0" y2="266.0" gradientUnits="userSpaceOnUse" xlink:type="simple" xlink:actuate="onLoad" xlink:show="other" /><linearGradient xmlns:xlink="http://www.w3.org/1999/xlink" xlink:href="#linearGradientF8FBFEEDF5FCDEEDFAD4E7F8E2E5E9" id="linearGradientF8FBFEEDF5FCDEEDFAD4E7F8E2E5E9_420712562" x1="0" y1="20.0" x2="0" y2="126.0" gradientUnits="userSpaceOnUse" xlink:type="simple" xlink:actuate="onLoad" xlink:show="other" /></defs></svg>
