<?xml version="1.0" encoding="UTF-8"?>
<svg xmlns="http://www.w3.org/2000/svg" style="stroke-dasharray:none; shape-rendering:auto; font-family:'Arial'; text-rendering:auto; fill-opacity:1; color-interpolation:auto; color-rendering:auto; font-size:12; fill:black; stroke:black; image-rendering:auto; stroke-miterlimit:10; stroke-linecap:square; stroke-linejoin:miter; font-style:normal; stroke-width:1; stroke-dashoffset:0; font-weight:normal; stroke-opacity:1;" contentScriptType="text/ecmascript" preserveAspectRatio="xMidYMid meet" zoomAndPan="magnify" version="1.0" contentStyleType="text/css" xml:xlink="http://www.w3.org/1999/xlink" width="912" height="587"><rect x="2" y="0" width="869" height="134" ry="0" rx="0" style="stroke:#000000; fill:#FFFFFF" /><g componentSequence="5"><text x="-67" y="10" transform="rotate(270)" text-anchor="middle" style="font-weight:bold;font-size:10px;stroke:none; fill:#434343"><tspan dy="14" x="-67">Solicitante</tspan></text></g><rect x="390" y="470" width="481" height="117" ry="0" rx="0" style="stroke:#000000; fill:#82B0B7" /><g componentSequence="4"><text x="-528" y="398" transform="rotate(270)" text-anchor="middle" style="font-weight:bold;font-size:10px;stroke:none; fill:#434343"><tspan dy="14" x="-528">Reprovar</tspan></text></g><rect x="2" y="133" width="869" height="218" ry="0" rx="0" style="stroke:#000000; fill:#FFFFFF" /><g componentSequence="1"><text x="-242" y="10" transform="rotate(270)" text-anchor="middle" style="font-weight:bold;font-size:10px;stroke:none; fill:#434343"><tspan dy="14" x="-242">Alta Gestão</tspan></text></g><rect x="2" y="470" width="389" height="117" ry="0" rx="0" style="stroke:#000000; fill:#A7FCC0" /><g componentSequence="3"><text x="-528" y="10" transform="rotate(270)" text-anchor="middle" style="font-weight:bold;font-size:10px;stroke:none; fill:#434343"><tspan dy="14" x="-528">Aprovar</tspan></text></g><rect x="2" y="350" width="869" height="121" ry="0" rx="0" style="stroke:#000000; fill:#FFFFFF" /><g componentSequence="2"><text x="-410" y="10" transform="rotate(270)" text-anchor="middle" style="font-weight:bold;font-size:10px;stroke:none; fill:#434343"><tspan dy="14" x="-410">Gerencia financ...</tspan></text></g><g sequence="2"><ellipse cx="537" cy="27" rx="17" ry="17" stroke-width="1" style="fill:url(#linearGradient66FF6696FF96B6FFB6_2024546761);" stroke="336633" /></g><g sequence="8"><ellipse cx="117" cy="531" rx="17" ry="17" stroke-width="3" style="fill:url(#linearGradientFF6666FF9696FFB6B6_1986777260);" stroke="993333" /></g><g sequence="116"><rect x="40" y="180" width="106" height="108" ry="5" rx="5" style="fill:url(#linearGradientF8FBFEEDF5FCDEEDFAD4E7F8E2E5E9_1918126777);" stroke="191970" /></g><g componentSequence="116"><text x="93" y="195" text-anchor="middle" style="font-weight:bold;font-size:10px;stroke:none; fill:#333399"><tspan dy="14" x="93">Chefe</tspan><tspan dy="14" x="93">Imediato -</tspan><tspan dy="14" x="93">Validar</tspan><tspan dy="14" x="93">solicitação</tspan></text></g><g sequence="134"><ellipse cx="637" cy="529" rx="17" ry="17" stroke-width="3" style="fill:url(#linearGradientFF6666FF9696FFB6B6_928438935);" stroke="993333" /></g><g sequence="134"><polygon points=" 628 525 633 520 638 525 643 520 648 525 643 530 648 535 643 540 638 535 633 540 628 535 633 530" style="stroke:none; fill:#993333" /></g><g sequence="145"><rect x="450" y="160" width="106" height="124" ry="5" rx="5" style="fill:url(#linearGradientF8FBFEEDF5FCDEEDFAD4E7F8E2E5E9_787285981);" stroke="191970" /></g><g componentSequence="145"><text x="503" y="175" text-anchor="middle" style="font-weight:bold;font-size:10px;stroke:none; fill:#333399"><tspan dy="14" x="503">Gestor do</tspan><tspan dy="14" x="503">Centro de</tspan><tspan dy="14" x="503">Custos -</tspan><tspan dy="14" x="503">Validar</tspan><tspan dy="14" x="503">solicitação</tspan></text></g><g sequence="161"><rect x="260" y="374" width="106" height="92" ry="5" rx="5" style="fill:url(#linearGradientF8FBFEEDF5FCDEEDFAD4E7F8E2E5E9_111889436);" stroke="191970" /></g><g componentSequence="161"><text x="313" y="389" text-anchor="middle" style="font-weight:bold;font-size:10px;stroke:none; fill:#333399"><tspan dy="14" x="313">Aprovado -</tspan><tspan dy="14" x="313">GEF aferir</tspan><tspan dy="14" x="313">dados</tspan></text></g><g sequence="168"><polygon points=" 70 50 100 20 130 50 100 80 70 50" style="fill:url(#linearGradientFAFBFCFFFFCC_1459277810);" stroke="000000" /></g><g componentSequence="168"><text x="100" y="90" text-anchor="middle" style="font-weight:bold;font-size:10px;stroke:none; fill:#333399"><tspan dy="14" x="100">Exclusi</tspan><tspan dy="14" x="100">vo</tspan></text></g><g sequence="172"><rect x="310" y="15" width="106" height="108" ry="5" rx="5" style="fill:url(#linearGradientF8FBFEEDF5FCDEEDFAD4E7F8E2E5E9_1467557336);" stroke="191970" /></g><g componentSequence="172"><text x="363" y="30" text-anchor="middle" style="font-weight:bold;font-size:10px;stroke:none; fill:#333399"><tspan dy="14" x="363">Processamen</tspan><tspan dy="14" x="363">to do fluxo de</tspan><tspan dy="14" x="363">aprovação</tspan></text></g><g sequence="174"><rect x="680" y="180" width="106" height="92" ry="5" rx="5" style="fill:url(#linearGradientF8FBFEEDF5FCDEEDFAD4E7F8E2E5E9_292295429);" stroke="191970" /></g><g componentSequence="174"><text x="733" y="195" text-anchor="middle" style="font-weight:bold;font-size:10px;stroke:none; fill:#333399"><tspan dy="14" x="733">Alta Gestão -</tspan><tspan dy="14" x="733">Aprovar</tspan><tspan dy="14" x="733">solicitação</tspan></text></g><g sequence="180"><rect x="710" y="23" width="106" height="92" ry="5" rx="5" style="fill:url(#linearGradientF8FBFEEDF5FCDEEDFAD4E7F8E2E5E9_1308321432);" stroke="191970" /></g><g componentSequence="180"><text x="763" y="38" text-anchor="middle" style="font-weight:bold;font-size:10px;stroke:none; fill:#333399"><tspan dy="14" x="763">Solicitante -</tspan><tspan dy="14" x="763">Ajustar</tspan><tspan dy="14" x="763">solicitação</tspan></text></g><g componentSequence="146"><text x="308" y="228" style="font-size:10px;font-weight:none;stroke:none; fill:#333399" text-anchor="left" /></g><g componentSequence="163"><text x="207" y="486" style="font-size:10px;font-weight:none;stroke:none; fill:#333399" text-anchor="left" /></g><g componentSequence="166"><text x="478" y="44" style="font-size:10px;font-weight:none;stroke:none; fill:#333399" text-anchor="left" /></g><g componentSequence="169"><text x="228" y="93" style="font-size:10px;font-weight:none;stroke:none; fill:#333399" text-anchor="left" /></g><g componentSequence="170"><text x="300" y="154" style="font-size:10px;font-weight:none;stroke:none; fill:#333399" text-anchor="left"><tspan dy="14" x="300">Chefia igual Gestor</tspan><tspan dy="14" x="300">Centro de custo</tspan></text></g><g componentSequence="171"><text x="106" y="164" style="font-size:10px;font-weight:none;stroke:none; fill:#333399" text-anchor="left"><tspan dy="14" x="106">Chefia diferente Gestor</tspan><tspan dy="14" x="106">Centro de custo</tspan></text></g><g componentSequence="173"><text x="225" y="29" style="font-size:10px;font-weight:none;stroke:none; fill:#333399" text-anchor="left" /></g><g componentSequence="175"><text x="628" y="224" style="font-size:10px;font-weight:none;stroke:none; fill:#333399" text-anchor="left" /></g><g componentSequence="176"><text x="533" y="323" style="font-size:10px;font-weight:none;stroke:none; fill:#333399" text-anchor="left" /></g><g componentSequence="177"><text x="480" y="329" style="font-size:10px;font-weight:none;stroke:none; fill:#333399" text-anchor="left" /></g><g componentSequence="178"><text x="687" y="325" style="font-size:10px;font-weight:none;stroke:none; fill:#333399" text-anchor="left" /></g><g componentSequence="179"><text x="691" y="392" style="font-size:10px;font-weight:none;stroke:none; fill:#333399" text-anchor="left" /></g><g componentSequence="181"><text x="866" y="412" style="font-size:10px;font-weight:none;stroke:none; fill:#333399" text-anchor="left" /></g><g componentSequence="184"><text x="573" y="69" style="font-size:10px;font-weight:none;stroke:none; fill:#333399" text-anchor="left" /></g><g componentSequence="185"><text x="643" y="145" style="font-size:10px;font-weight:none;stroke:none; fill:#333399" text-anchor="left" /></g><g componentSequence="186"><text x="758" y="147" style="font-size:10px;font-weight:none;stroke:none; fill:#333399" text-anchor="left" /></g><path style="fill:none; stroke:#000000;stroke-width:1" d="M520.0 31.0 L416.0 56.0" /><polygon style="fill:#000000; stroke:#000000;" points=" 427 59 416 56 425 49 424 54" /><path style="fill:none; stroke:#000000;stroke-width:1" d="M259.0 450.0 L132.0 523.0" /><polygon style="fill:#000000; stroke:#000000;" points=" 143 522 132 523 138 514 139 519" /><path style="fill:none; stroke:#000000;stroke-width:1" d="M146.0 232.0 L449.0 223.0" /><polygon style="fill:#000000; stroke:#000000;" points=" 439 218 449 223 439 228 441 223" /><path style="fill:none; stroke:#000000;stroke-width:1" d="M92.0 288.0 L92.0 329.0 L699.0 329.0 L642.0 512.0" /><polygon style="fill:#000000; stroke:#000000;" points=" 650 504 642 512 640 501 644 504" /><path style="fill:none; stroke:#000000;stroke-width:1" d="M97.0 128.0 L95.0 179.0" /><polygon style="fill:#000000; stroke:#000000;" points=" 100 169 95 179 90 169 95 171" /><path style="fill:none; stroke:#000000;stroke-width:1" d="M502.0 284.0 L502.0 325.0 L698.0 325.0 L642.0 512.0" /><polygon style="fill:#000000; stroke:#000000;" points=" 650 504 642 512 640 501 644 504" /><path style="fill:none; stroke:#000000;stroke-width:1" d="M718.0 272.0 L642.0 512.0" /><polygon style="fill:#000000; stroke:#000000;" points=" 650 504 642 512 640 501 644 504" /><path style="fill:none; stroke:#000000;stroke-width:1" d="M556.0 223.0 L679.0 225.0" /><polygon style="fill:#000000; stroke:#000000;" points=" 669 220 679 225 669 230 671 225" /><path style="fill:none; stroke:#000000;stroke-width:1" d="M556.0 190.0 L709.0 100.0" /><polygon style="fill:#000000; stroke:#000000;" points=" 698 101 709 100 703 109 702 104" /><path style="fill:none; stroke:#000000;stroke-width:1" d="M130.0 85.0 L449.0 202.0" /><polygon style="fill:#000000; stroke:#000000;" points=" 441 194 449 202 438 203 441 199" /><path style="fill:none; stroke:#000000;stroke-width:1" d="M366.0 419.0 L911.0 411.0 L911.0 71.0 L816.0 69.0" /><polygon style="fill:#000000; stroke:#000000;" points=" 826 74 816 69 826 64 824 69" /><path style="fill:none; stroke:#000000;stroke-width:1" d="M679.0 250.0 L366.0 395.0" /><polygon style="fill:#000000; stroke:#000000;" points=" 377 395 366 395 373 386 373 392" /><path style="fill:none; stroke:#000000;stroke-width:1" d="M309.0 78.0 L173.0 101.0 L130.0 85.0" /><polygon style="fill:#000000; stroke:#000000;" points=" 138 93 130 85 141 84 137 88" /><path style="fill:none; stroke:#009600;stroke-width:1" d="M309.0 54.0 L172.0 18.0 L130.0 50.0" /><polygon style="fill:#009600; stroke:#009600;" points=" 141 48 130 50 135 40 136 45" /><path style="fill:none; stroke:#000000;stroke-width:1" d="M709.0 69.0 L416.0 69.0" /><polygon style="fill:#000000; stroke:#000000;" points=" 426 74 416 69 426 64 424 69" /><path style="fill:none; stroke:#000000;stroke-width:1" d="M742.0 179.0 L754.0 115.0" /><polygon style="fill:#000000; stroke:#000000;" points=" 747 124 754 115 757 126 753 123" /><defs><linearGradient xmlns:xlink="http://www.w3.org/1999/xlink" xlink:href="#linearGradient66FF6696FF96B6FFB6" id="linearGradient66FF6696FF96B6FFB6_2024546761" x1="0" y1="10.0" x2="0" y2="45.0" gradientUnits="userSpaceOnUse" xlink:type="simple" xlink:actuate="onLoad" xlink:show="other" /><linearGradient id="linearGradient66FF6696FF96B6FFB6"><stop style="stop-color:#66FF66;stop-opacity:1;" offset="0.0" id="stop66FF66" /><stop style="stop-color:#96FF96;stop-opacity:1;" offset="0.5" id="stop96FF96" /><stop style="stop-color:#B6FFB6;stop-opacity:1;" offset="1.0" id="stopB6FFB6" /></linearGradient><linearGradient xmlns:xlink="http://www.w3.org/1999/xlink" xlink:href="#linearGradientFF6666FF9696FFB6B6" id="linearGradientFF6666FF9696FFB6B6_1986777260" x1="0" y1="514.0" x2="0" y2="549.0" gradientUnits="userSpaceOnUse" xlink:type="simple" xlink:actuate="onLoad" xlink:show="other" /><linearGradient id="linearGradientFF6666FF9696FFB6B6"><stop style="stop-color:#FF6666;stop-opacity:1;" offset="0.0" id="stopFF6666" /><stop style="stop-color:#FF9696;stop-opacity:1;" offset="0.5" id="stopFF9696" /><stop style="stop-color:#FFB6B6;stop-opacity:1;" offset="1.0" id="stopFFB6B6" /></linearGradient><linearGradient xmlns:xlink="http://www.w3.org/1999/xlink" xlink:href="#linearGradientF8FBFEEDF5FCDEEDFAD4E7F8E2E5E9" id="linearGradientF8FBFEEDF5FCDEEDFAD4E7F8E2E5E9_1918126777" x1="0" y1="180.0" x2="0" y2="286.0" gradientUnits="userSpaceOnUse" xlink:type="simple" xlink:actuate="onLoad" xlink:show="other" /><linearGradient id="linearGradientF8FBFEEDF5FCDEEDFAD4E7F8E2E5E9"><stop style="stop-color:#F8FBFE;stop-opacity:1;" offset="0.0" id="stopF8FBFE" /><stop style="stop-color:#EDF5FC;stop-opacity:1;" offset="0.25" id="stopEDF5FC" /><stop style="stop-color:#DEEDFA;stop-opacity:1;" offset="0.5" id="stopDEEDFA" /><stop style="stop-color:#D4E7F8;stop-opacity:1;" offset="0.75" id="stopD4E7F8" /><stop style="stop-color:#E2E5E9;stop-opacity:1;" offset="1.0" id="stopE2E5E9" /></linearGradient><linearGradient xmlns:xlink="http://www.w3.org/1999/xlink" xlink:href="#linearGradientFF6666FF9696FFB6B6" id="linearGradientFF6666FF9696FFB6B6_928438935" x1="0" y1="512.0" x2="0" y2="547.0" gradientUnits="userSpaceOnUse" xlink:type="simple" xlink:actuate="onLoad" xlink:show="other" /><linearGradient xmlns:xlink="http://www.w3.org/1999/xlink" xlink:href="#linearGradientF8FBFEEDF5FCDEEDFAD4E7F8E2E5E9" id="linearGradientF8FBFEEDF5FCDEEDFAD4E7F8E2E5E9_787285981" x1="0" y1="160.0" x2="0" y2="266.0" gradientUnits="userSpaceOnUse" xlink:type="simple" xlink:actuate="onLoad" xlink:show="other" /><linearGradient xmlns:xlink="http://www.w3.org/1999/xlink" xlink:href="#linearGradientF8FBFEEDF5FCDEEDFAD4E7F8E2E5E9" id="linearGradientF8FBFEEDF5FCDEEDFAD4E7F8E2E5E9_111889436" x1="0" y1="374.0" x2="0" y2="480.0" gradientUnits="userSpaceOnUse" xlink:type="simple" xlink:actuate="onLoad" xlink:show="other" /><linearGradient xmlns:xlink="http://www.w3.org/1999/xlink" xlink:href="#linearGradientFAFBFCFFFFCC" id="linearGradientFAFBFCFFFFCC_1459277810" x1="0" y1="20.0" x2="0" y2="80.0" gradientUnits="userSpaceOnUse" xlink:type="simple" xlink:actuate="onLoad" xlink:show="other" /><linearGradient id="linearGradientFAFBFCFFFFCC"><stop style="stop-color:#FAFBFC;stop-opacity:1;" offset="0.0" id="stopFAFBFC" /><stop style="stop-color:#FFFFCC;stop-opacity:1;" offset="1.0" id="stopFFFFCC" /></linearGradient><linearGradient xmlns:xlink="http://www.w3.org/1999/xlink" xlink:href="#linearGradientF8FBFEEDF5FCDEEDFAD4E7F8E2E5E9" id="linearGradientF8FBFEEDF5FCDEEDFAD4E7F8E2E5E9_1467557336" x1="0" y1="15.0" x2="0" y2="121.0" gradientUnits="userSpaceOnUse" xlink:type="simple" xlink:actuate="onLoad" xlink:show="other" /><linearGradient xmlns:xlink="http://www.w3.org/1999/xlink" xlink:href="#linearGradientF8FBFEEDF5FCDEEDFAD4E7F8E2E5E9" id="linearGradientF8FBFEEDF5FCDEEDFAD4E7F8E2E5E9_292295429" x1="0" y1="180.0" x2="0" y2="286.0" gradientUnits="userSpaceOnUse" xlink:type="simple" xlink:actuate="onLoad" xlink:show="other" /><linearGradient xmlns:xlink="http://www.w3.org/1999/xlink" xlink:href="#linearGradientF8FBFEEDF5FCDEEDFAD4E7F8E2E5E9" id="linearGradientF8FBFEEDF5FCDEEDFAD4E7F8E2E5E9_1308321432" x1="0" y1="23.0" x2="0" y2="129.0" gradientUnits="userSpaceOnUse" xlink:type="simple" xlink:actuate="onLoad" xlink:show="other" /></defs></svg>
