<?xml version="1.0" encoding="UTF-8"?>
<svg xmlns="http://www.w3.org/2000/svg" style="stroke-dasharray:none; shape-rendering:auto; font-family:'Arial'; text-rendering:auto; fill-opacity:1; color-interpolation:auto; color-rendering:auto; font-size:12; fill:black; stroke:black; image-rendering:auto; stroke-miterlimit:10; stroke-linecap:square; stroke-linejoin:miter; font-style:normal; stroke-width:1; stroke-dashoffset:0; font-weight:normal; stroke-opacity:1;" contentScriptType="text/ecmascript" preserveAspectRatio="xMidYMid meet" zoomAndPan="magnify" version="1.0" contentStyleType="text/css" xml:xlink="http://www.w3.org/1999/xlink" width="534" height="587"><rect x="2" y="133" width="531" height="183" ry="0" rx="0" style="stroke:#000000; fill:#FFFFFF" /><g componentSequence="1"><text x="-224" y="10" transform="rotate(270)" text-anchor="middle" style="font-weight:bold;font-size:10px;stroke:none; fill:#434343"><tspan dy="14" x="-224">Gestão</tspan></text></g><rect x="2" y="470" width="248" height="117" ry="0" rx="0" style="stroke:#000000; fill:#A7FCC0" /><g componentSequence="3"><text x="-528" y="10" transform="rotate(270)" text-anchor="middle" style="font-weight:bold;font-size:10px;stroke:none; fill:#434343"><tspan dy="14" x="-528">Aprovar</tspan></text></g><rect x="249" y="470" width="285" height="117" ry="0" rx="0" style="stroke:#000000; fill:#82B0B7" /><g componentSequence="5"><text x="-528" y="257" transform="rotate(270)" text-anchor="middle" style="font-weight:bold;font-size:10px;stroke:none; fill:#434343"><tspan dy="14" x="-528">Reprovar</tspan></text></g><rect x="2" y="316" width="531" height="155" ry="0" rx="0" style="stroke:#000000; fill:#FFFFFF" /><g componentSequence="2"><text x="-393" y="10" transform="rotate(270)" text-anchor="middle" style="font-weight:bold;font-size:10px;stroke:none; fill:#434343"><tspan dy="14" x="-393">Gerencia financeira e ...</tspan></text></g><rect x="2" y="0" width="531" height="134" ry="0" rx="0" style="stroke:#000000; fill:#FFFFFF" /><g componentSequence="4"><text x="-67" y="10" transform="rotate(270)" text-anchor="middle" style="font-weight:bold;font-size:10px;stroke:none; fill:#434343"><tspan dy="14" x="-67">Solicitante</tspan></text></g><g sequence="2"><ellipse cx="457" cy="85" rx="17" ry="17" stroke-width="1" style="fill:url(#linearGradient66FF6696FF96B6FFB6_385098892);" stroke="336633" /></g><g sequence="8"><ellipse cx="117" cy="531" rx="17" ry="17" stroke-width="3" style="fill:url(#linearGradientFF6666FF9696FFB6B6_406050850);" stroke="993333" /></g><g sequence="116"><rect x="40" y="150" width="106" height="108" ry="5" rx="5" style="fill:url(#linearGradientF8FBFEEDF5FCDEEDFAD4E7F8E2E5E9_470568956);" stroke="191970" /></g><g componentSequence="116"><text x="93" y="165" text-anchor="middle" style="font-weight:bold;font-size:10px;stroke:none; fill:#333399"><tspan dy="14" x="93">Chefe</tspan><tspan dy="14" x="93">Imediato -</tspan><tspan dy="14" x="93">Aprovar</tspan><tspan dy="14" x="93">solicitação</tspan></text></g><g sequence="134"><ellipse cx="417" cy="531" rx="17" ry="17" stroke-width="3" style="fill:url(#linearGradientFF6666FF9696FFB6B6_1494143513);" stroke="993333" /></g><g sequence="134"><polygon points=" 408 527 413 522 418 527 423 522 428 527 423 532 428 537 423 542 418 537 413 542 408 537 413 532" style="stroke:none; fill:#993333" /></g><g sequence="145"><rect x="200" y="140" width="106" height="124" ry="5" rx="5" style="fill:url(#linearGradientF8FBFEEDF5FCDEEDFAD4E7F8E2E5E9_1852399088);" stroke="191970" /></g><g componentSequence="145"><text x="253" y="155" text-anchor="middle" style="font-weight:bold;font-size:10px;stroke:none; fill:#333399"><tspan dy="14" x="253">Gestor Centro</tspan><tspan dy="14" x="253">de Custos -</tspan><tspan dy="14" x="253">Aprovar</tspan><tspan dy="14" x="253">solicitação</tspan></text></g><g sequence="161"><rect x="220" y="360" width="106" height="76" ry="5" rx="5" style="fill:url(#linearGradientF8FBFEEDF5FCDEEDFAD4E7F8E2E5E9_1755146967);" stroke="191970" /></g><g componentSequence="161"><text x="273" y="375" text-anchor="middle" style="font-weight:bold;font-size:10px;stroke:none; fill:#333399"><tspan dy="14" x="273">GEF - Validar</tspan><tspan dy="14" x="273">solicitação</tspan></text></g><g sequence="168"><polygon points=" 70 50 100 20 130 50 100 80 70 50" style="fill:url(#linearGradientFAFBFCFFFFCC_370195351);" stroke="000000" /></g><g componentSequence="168"><text x="100" y="90" text-anchor="middle" style="font-weight:bold;font-size:10px;stroke:none; fill:#333399"><tspan dy="14" x="100">Exclusi</tspan><tspan dy="14" x="100">vo</tspan></text></g><g sequence="172"><rect x="290" y="10" width="106" height="76" ry="5" rx="5" style="fill:url(#linearGradientF8FBFEEDF5FCDEEDFAD4E7F8E2E5E9_958475606);" stroke="191970" /></g><g componentSequence="172"><text x="343" y="25" text-anchor="middle" style="font-weight:bold;font-size:10px;stroke:none; fill:#333399"><tspan dy="14" x="343">Processamen</tspan><tspan dy="14" x="343">to</tspan></text></g><g sequence="174"><rect x="370" y="180" width="106" height="92" ry="5" rx="5" style="fill:url(#linearGradientF8FBFEEDF5FCDEEDFAD4E7F8E2E5E9_495153503);" stroke="191970" /></g><g componentSequence="174"><text x="423" y="195" text-anchor="middle" style="font-weight:bold;font-size:10px;stroke:none; fill:#333399"><tspan dy="14" x="423">Autorizadores</tspan><tspan dy="14" x="423">- Aprovar</tspan><tspan dy="14" x="423">solicitação</tspan></text></g><g componentSequence="146"><text x="183" y="203" style="font-size:10px;font-weight:none;stroke:none; fill:#333399" text-anchor="left" /></g><g componentSequence="163"><text x="192" y="476" style="font-size:10px;font-weight:none;stroke:none; fill:#333399" text-anchor="left" /></g><g componentSequence="164"><text x="367" y="475" style="font-size:10px;font-weight:none;stroke:none; fill:#333399" text-anchor="left" /></g><g componentSequence="166"><text x="428" y="72" style="font-size:10px;font-weight:none;stroke:none; fill:#333399" text-anchor="left" /></g><g componentSequence="169"><text x="222" y="91" style="font-size:10px;font-weight:none;stroke:none; fill:#333399" text-anchor="left" /></g><g componentSequence="170"><text x="175" y="128" style="font-size:10px;font-weight:none;stroke:none; fill:#333399" text-anchor="left" /></g><g componentSequence="171"><text x="107" y="139" style="font-size:10px;font-weight:none;stroke:none; fill:#333399" text-anchor="left" /></g><g componentSequence="173"><text x="214" y="24" style="font-size:10px;font-weight:none;stroke:none; fill:#333399" text-anchor="left" /></g><g componentSequence="175"><text x="348" y="214" style="font-size:10px;font-weight:none;stroke:none; fill:#333399" text-anchor="left" /></g><g componentSequence="176"><text x="354" y="316" style="font-size:10px;font-weight:none;stroke:none; fill:#333399" text-anchor="left" /></g><path style="fill:none; stroke:#000000;stroke-width:1" d="M440.0 80.0 L396.0 65.0" /><polygon style="fill:#000000; stroke:#000000;" points=" 404 73 396 65 407 63 404 68" /><path style="fill:none; stroke:#000000;stroke-width:1" d="M228.0 436.0 L130.0 520.0" /><polygon style="fill:#000000; stroke:#000000;" points=" 141 517 130 520 134 510 136 515" /><path style="fill:none; stroke:#000000;stroke-width:1" d="M146.0 203.0 L199.0 202.0" /><polygon style="fill:#000000; stroke:#000000;" points=" 189 197 199 202 189 207 191 202" /><path style="fill:none; stroke:#000000;stroke-width:1" d="M97.0 128.0 L96.0 149.0" /><polygon style="fill:#000000; stroke:#000000;" points=" 101 139 96 149 91 139 96 141" /><path style="fill:none; stroke:#000000;stroke-width:1" d="M314.0 436.0 L404.0 519.0" /><polygon style="fill:#000000; stroke:#000000;" points=" 400 509 404 519 393 516 398 514" /><path style="fill:none; stroke:#000000;stroke-width:1" d="M306.0 209.0 L369.0 218.0" /><polygon style="fill:#000000; stroke:#000000;" points=" 360 212 369 218 358 222 361 217" /><path style="fill:none; stroke:#000000;stroke-width:1" d="M130.0 99.0 L199.0 157.0" /><polygon style="fill:#000000; stroke:#000000;" points=" 195 147 199 157 188 154 193 152" /><path style="fill:none; stroke:#000000;stroke-width:1" d="M382.0 272.0 L306.0 359.0" /><polygon style="fill:#000000; stroke:#000000;" points=" 316 355 306 359 309 348 311 353" /><path style="fill:none; stroke:#000000;stroke-width:1" d="M289.0 74.0 L244.0 96.0 L130.0 78.0" /><polygon style="fill:#000000; stroke:#000000;" points=" 139 84 130 78 141 75 138 79" /><path style="fill:none; stroke:#009600;stroke-width:1" d="M289.0 38.0 L172.0 18.0 L130.0 50.0" /><polygon style="fill:#009600; stroke:#009600;" points=" 141 48 130 50 135 40 136 45" /><defs><linearGradient xmlns:xlink="http://www.w3.org/1999/xlink" xlink:href="#linearGradient66FF6696FF96B6FFB6" id="linearGradient66FF6696FF96B6FFB6_385098892" x1="0" y1="68.0" x2="0" y2="103.0" gradientUnits="userSpaceOnUse" xlink:type="simple" xlink:actuate="onLoad" xlink:show="other" /><linearGradient id="linearGradient66FF6696FF96B6FFB6"><stop style="stop-color:#66FF66;stop-opacity:1;" offset="0.0" id="stop66FF66" /><stop style="stop-color:#96FF96;stop-opacity:1;" offset="0.5" id="stop96FF96" /><stop style="stop-color:#B6FFB6;stop-opacity:1;" offset="1.0" id="stopB6FFB6" /></linearGradient><linearGradient xmlns:xlink="http://www.w3.org/1999/xlink" xlink:href="#linearGradientFF6666FF9696FFB6B6" id="linearGradientFF6666FF9696FFB6B6_406050850" x1="0" y1="514.0" x2="0" y2="549.0" gradientUnits="userSpaceOnUse" xlink:type="simple" xlink:actuate="onLoad" xlink:show="other" /><linearGradient id="linearGradientFF6666FF9696FFB6B6"><stop style="stop-color:#FF6666;stop-opacity:1;" offset="0.0" id="stopFF6666" /><stop style="stop-color:#FF9696;stop-opacity:1;" offset="0.5" id="stopFF9696" /><stop style="stop-color:#FFB6B6;stop-opacity:1;" offset="1.0" id="stopFFB6B6" /></linearGradient><linearGradient xmlns:xlink="http://www.w3.org/1999/xlink" xlink:href="#linearGradientF8FBFEEDF5FCDEEDFAD4E7F8E2E5E9" id="linearGradientF8FBFEEDF5FCDEEDFAD4E7F8E2E5E9_470568956" x1="0" y1="150.0" x2="0" y2="256.0" gradientUnits="userSpaceOnUse" xlink:type="simple" xlink:actuate="onLoad" xlink:show="other" /><linearGradient id="linearGradientF8FBFEEDF5FCDEEDFAD4E7F8E2E5E9"><stop style="stop-color:#F8FBFE;stop-opacity:1;" offset="0.0" id="stopF8FBFE" /><stop style="stop-color:#EDF5FC;stop-opacity:1;" offset="0.25" id="stopEDF5FC" /><stop style="stop-color:#DEEDFA;stop-opacity:1;" offset="0.5" id="stopDEEDFA" /><stop style="stop-color:#D4E7F8;stop-opacity:1;" offset="0.75" id="stopD4E7F8" /><stop style="stop-color:#E2E5E9;stop-opacity:1;" offset="1.0" id="stopE2E5E9" /></linearGradient><linearGradient xmlns:xlink="http://www.w3.org/1999/xlink" xlink:href="#linearGradientFF6666FF9696FFB6B6" id="linearGradientFF6666FF9696FFB6B6_1494143513" x1="0" y1="514.0" x2="0" y2="549.0" gradientUnits="userSpaceOnUse" xlink:type="simple" xlink:actuate="onLoad" xlink:show="other" /><linearGradient xmlns:xlink="http://www.w3.org/1999/xlink" xlink:href="#linearGradientF8FBFEEDF5FCDEEDFAD4E7F8E2E5E9" id="linearGradientF8FBFEEDF5FCDEEDFAD4E7F8E2E5E9_1852399088" x1="0" y1="140.0" x2="0" y2="246.0" gradientUnits="userSpaceOnUse" xlink:type="simple" xlink:actuate="onLoad" xlink:show="other" /><linearGradient xmlns:xlink="http://www.w3.org/1999/xlink" xlink:href="#linearGradientF8FBFEEDF5FCDEEDFAD4E7F8E2E5E9" id="linearGradientF8FBFEEDF5FCDEEDFAD4E7F8E2E5E9_1755146967" x1="0" y1="360.0" x2="0" y2="466.0" gradientUnits="userSpaceOnUse" xlink:type="simple" xlink:actuate="onLoad" xlink:show="other" /><linearGradient xmlns:xlink="http://www.w3.org/1999/xlink" xlink:href="#linearGradientFAFBFCFFFFCC" id="linearGradientFAFBFCFFFFCC_370195351" x1="0" y1="20.0" x2="0" y2="80.0" gradientUnits="userSpaceOnUse" xlink:type="simple" xlink:actuate="onLoad" xlink:show="other" /><linearGradient id="linearGradientFAFBFCFFFFCC"><stop style="stop-color:#FAFBFC;stop-opacity:1;" offset="0.0" id="stopFAFBFC" /><stop style="stop-color:#FFFFCC;stop-opacity:1;" offset="1.0" id="stopFFFFCC" /></linearGradient><linearGradient xmlns:xlink="http://www.w3.org/1999/xlink" xlink:href="#linearGradientF8FBFEEDF5FCDEEDFAD4E7F8E2E5E9" id="linearGradientF8FBFEEDF5FCDEEDFAD4E7F8E2E5E9_958475606" x1="0" y1="10.0" x2="0" y2="116.0" gradientUnits="userSpaceOnUse" xlink:type="simple" xlink:actuate="onLoad" xlink:show="other" /><linearGradient xmlns:xlink="http://www.w3.org/1999/xlink" xlink:href="#linearGradientF8FBFEEDF5FCDEEDFAD4E7F8E2E5E9" id="linearGradientF8FBFEEDF5FCDEEDFAD4E7F8E2E5E9_495153503" x1="0" y1="180.0" x2="0" y2="286.0" gradientUnits="userSpaceOnUse" xlink:type="simple" xlink:actuate="onLoad" xlink:show="other" /></defs></svg>
